# xmcd CD database file
#
# Track frame offsets:
#	187
#	12550
#	23815
#	35015
#	53505
#	67750
#	79452
#	90980
#	106762
#	118625
#	125825
#	137185
#	150062
#	159960
#	171312
#	183440
#	191720
#	202467
#	210367
#	227347
#
# Disc length: 3188 seconds
#
# Revision: 0
# Processed by: cddbd v1.5.2PL0 Copyright (c) Steve Scherf et al.
# Submitted via: CDex 1.51
#
DISCID=050c7214
DTITLE="Big Eye" Louis Nelson - 1949 Sessions and Live at Luthjens
DYEAR=1949
DGENRE=Jazz
TTITLE0=Dinah
TTITLE1=Bb Blues
TTITLE2=Clarinet Marmalade
TTITLE3=You Made Me What I Am
TTITLE4=Basin Street Blues
TTITLE5=Black Cat On The Fence
TTITLE6=Pork Chop
TTITLE7=Holler Blues
TTITLE8=Basin Street Blues
TTITLE9=Leaning On The Everlasting Arm
TTITLE10=March
TTITLE11=Ai Ai Ai
TTITLE12=Bye and Bye
TTITLE13=Shake That Thing
TTITLE14=Rose Room
TTITLE15=Tiger Rag
TTITLE16=Eh! La Bas
TTITLE17=Shake That Thing (reprise)
TTITLE18=Tin Roof Blues
TTITLE19=Weary Blues
EXTD=YEAR: 1949
EXTT0=
EXTT1=
EXTT2=
EXTT3=
EXTT4=
EXTT5=
EXTT6=
EXTT7=
EXTT8=
EXTT9=
EXTT10=
EXTT11=
EXTT12=
EXTT13=
EXTT14=
EXTT15=
EXTT16=
EXTT17=
EXTT18=
EXTT19=
PLAYORDER=
